<?xml version="1.0" encoding="iso-8859-1"?>
<!-- Generator: Adobe Illustrator 19.0.0, SVG Export Plug-In . SVG Version: 6.00 Build 0)  -->
<svg version="1.1" id="Layer_1" xmlns="http://www.w3.org/2000/svg" xmlns:xlink="http://www.w3.org/1999/xlink" x="0px" y="0px"
	 viewBox="0 0 512 512" style="enable-background:new 0 0 512 512;" xml:space="preserve">
<circle style="fill:#FFDC7B;" cx="256" cy="256" r="157.132"/>
<path style="fill:#F0AE59;" d="M119.768,256c0-83.268,64.773-151.396,146.681-156.775c-3.454-0.227-6.937-0.354-10.449-0.354
	c-86.781,0-157.13,70.349-157.13,157.13c0,86.78,70.349,157.13,157.13,157.13c3.512,0,6.995-0.128,10.449-0.354
	C184.542,407.396,119.768,339.268,119.768,256z"/>
<circle style="fill:#FFF1CC;" cx="309.123" cy="211.331" r="31.089"/>
<path d="M256,44.929c4.329,0,7.837-3.509,7.837-7.837V7.837C263.837,3.509,260.329,0,256,0c-4.329,0-7.837,3.509-7.837,7.837v29.255
	C248.163,41.42,251.671,44.929,256,44.929z"/>
<path d="M256,467.071c-4.329,0-7.837,3.509-7.837,7.837v29.255c0,4.328,3.508,7.837,7.837,7.837c4.329,0,7.837-3.509,7.837-7.837
	v-29.255C263.837,470.58,260.329,467.071,256,467.071z"/>
<path d="M139.759,70.337c1.452,2.514,4.086,3.919,6.794,3.919c1.329,0,2.678-0.339,3.911-1.051
	c3.748-2.164,5.032-6.957,2.868-10.705l-14.628-25.336c-2.165-3.749-6.958-5.033-10.705-2.868
	c-3.748,2.164-5.032,6.957-2.868,10.705L139.759,70.337z"/>
<path d="M372.241,441.663c-2.165-3.749-6.958-5.032-10.705-2.868c-3.748,2.164-5.032,6.957-2.868,10.705l14.628,25.336
	c1.452,2.514,4.086,3.919,6.794,3.919c1.329,0,2.678-0.339,3.911-1.051c3.748-2.164,5.032-6.957,2.868-10.705L372.241,441.663z"/>
<path d="M70.337,139.759l-25.335-14.628c-3.747-2.166-8.542-0.881-10.705,2.868c-2.164,3.748-0.88,8.541,2.868,10.705l25.335,14.628
	c1.234,0.713,2.582,1.051,3.911,1.051c2.708,0,5.343-1.405,6.794-3.919C75.371,146.716,74.085,141.923,70.337,139.759z"/>
<path d="M474.834,373.295l-25.335-14.628c-3.747-2.166-8.543-0.881-10.705,2.868c-2.164,3.748-0.88,8.541,2.868,10.705
	l25.335,14.628c1.234,0.713,2.582,1.051,3.911,1.051c2.708,0,5.343-1.405,6.794-3.919
	C479.866,380.252,478.582,375.459,474.834,373.295z"/>
<path d="M44.929,256c0-4.328-3.508-7.837-7.837-7.837H7.837C3.508,248.163,0,251.672,0,256s3.508,7.837,7.837,7.837h29.255
	C41.421,263.837,44.929,260.328,44.929,256z"/>
<path d="M504.163,248.163h-29.255c-4.329,0-7.837,3.509-7.837,7.837s3.508,7.837,7.837,7.837h29.255
	c4.329,0,7.837-3.509,7.837-7.837S508.492,248.163,504.163,248.163z"/>
<path d="M62.501,358.667l-25.335,14.628c-3.748,2.164-5.032,6.957-2.868,10.705c1.452,2.514,4.086,3.919,6.794,3.919
	c1.329,0,2.678-0.34,3.911-1.051l25.335-14.628c3.748-2.164,5.032-6.957,2.868-10.705C71.041,357.787,66.247,356.505,62.501,358.667
	z"/>
<path d="M445.587,154.384c1.329,0,2.678-0.34,3.911-1.051l25.335-14.628c3.748-2.164,5.032-6.957,2.868-10.705
	c-2.164-3.749-6.959-5.032-10.705-2.868l-25.335,14.628c-3.748,2.164-5.032,6.957-2.868,10.705
	C440.246,152.978,442.88,154.384,445.587,154.384z"/>
<path d="M150.464,438.793c-3.75-2.165-8.542-0.881-10.705,2.868l-14.628,25.336c-2.164,3.748-0.88,8.541,2.868,10.705
	c1.235,0.713,2.582,1.051,3.911,1.051c2.708,0,5.343-1.405,6.794-3.919l14.628-25.336
	C155.496,445.751,154.212,440.958,150.464,438.793z"/>
<path d="M361.536,73.207c1.235,0.713,2.582,1.051,3.911,1.051c2.708,0,5.343-1.405,6.794-3.919l14.628-25.336
	c2.164-3.748,0.88-8.541-2.868-10.705c-3.751-2.166-8.542-0.881-10.705,2.868l-14.628,25.336
	C356.503,66.249,357.788,71.042,361.536,73.207z"/>
<path d="M256,405.293c-82.32,0-149.293-66.973-149.293-149.293c0-19.715,3.779-38.867,11.235-56.925
	c1.651-4.001-0.253-8.583-4.253-10.234c-4.004-1.651-8.584,0.253-10.235,4.254C95.212,213.058,91.034,234.223,91.034,256
	c0,90.963,74.004,164.966,164.966,164.966c4.329,0,7.837-3.509,7.837-7.837S260.329,405.293,256,405.293z"/>
<path d="M383.001,163.128c-3.614,2.38-4.614,7.241-2.234,10.855c16.044,24.358,24.526,52.718,24.526,82.017
	c0,33.185-10.655,64.6-30.813,90.848c-19.527,25.426-47.173,44.196-77.846,52.851c-4.165,1.176-6.589,5.506-5.414,9.671
	c0.975,3.454,4.117,5.71,7.538,5.71c0.704,0,1.421-0.096,2.133-0.297c33.9-9.566,64.45-30.302,86.019-58.389
	c22.279-29.011,34.056-63.726,34.056-100.394c0-32.372-9.375-63.715-27.109-90.639C391.474,161.746,386.616,160.746,383.001,163.128
	z"/>
<path d="M354.66,143.951c3.248,2.862,8.199,2.548,11.061-0.698c2.861-3.246,2.549-8.199-0.698-11.06
	c-30.118-26.543-68.837-41.16-109.024-41.16c-50.011,0-96.764,22.315-128.271,61.224c-2.723,3.364-2.204,8.299,1.159,11.022
	c1.451,1.176,3.195,1.746,4.927,1.746c2.284,0,4.547-0.993,6.096-2.905c28.515-35.216,70.828-55.414,116.089-55.414
	C292.369,106.707,327.407,119.933,354.66,143.951z"/>
<path d="M390.64,256c0-75.892-61.743-137.635-137.635-137.635c-4.329,0-7.837,3.509-7.837,7.837s3.508,7.837,7.837,7.837
	c67.25,0,121.962,54.712,121.962,121.962c0,4.328,3.508,7.837,7.837,7.837S390.64,260.328,390.64,256z"/>
<path d="M379.393,286.718c-4.134-1.273-8.521,1.05-9.795,5.186c-3.654,11.882-9.106,23.111-16.204,33.375
	c-2.461,3.56-1.572,8.442,1.988,10.904c1.36,0.94,2.913,1.392,4.45,1.392c2.487,0,4.932-1.181,6.453-3.38
	c8.011-11.586,14.167-24.265,18.294-37.682C385.852,292.376,383.53,287.991,379.393,286.718z"/>
<g>
</g>
<g>
</g>
<g>
</g>
<g>
</g>
<g>
</g>
<g>
</g>
<g>
</g>
<g>
</g>
<g>
</g>
<g>
</g>
<g>
</g>
<g>
</g>
<g>
</g>
<g>
</g>
<g>
</g>
</svg>
